<?xml version="1.0" standalone="no"?>
<!DOCTYPE svg PUBLIC "-//W3C//DTD SVG 20010904//EN"
 "http://www.w3.org/TR/2001/REC-SVG-20010904/DTD/svg10.dtd">
<svg version="1.0" xmlns="http://www.w3.org/2000/svg"
 width="2912.000000pt" height="2912.000000pt" viewBox="0 0 2912.000000 2912.000000"
 preserveAspectRatio="xMidYMid meet">
<metadata>
Created by potrace 1.11, written by Peter Selinger 2001-2013
</metadata>
<g transform="translate(0.000000,2912.000000) scale(0.100000,-0.100000)"
fill="#000000" stroke="none">
<path d="M14030 29113 c-233 -10 -507 -27 -710 -44 -2883 -243 -5595 -1328
-7865 -3144 -692 -554 -1363 -1203 -1951 -1888 -1990 -2316 -3197 -5195 -3453
-8237 -41 -483 -46 -623 -46 -1250 1 -625 10 -858 50 -1300 150 -1621 542
-3135 1191 -4600 133 -301 413 -864 568 -1142 1401 -2516 3492 -4552 6031
-5875 1693 -881 3562 -1424 5455 -1582 494 -42 615 -46 1260 -46 647 0 792 5
1265 46 2872 246 5588 1334 7845 3143 436 350 734 619 1186 1070 451 452 720
750 1070 1186 1848 2306 2944 5093 3158 8030 32 434 38 683 33 1251 -6 658
-24 962 -93 1549 -341 2912 -1563 5656 -3503 7870 -1735 1979 -3956 3447
-6446 4260 -1248 407 -2541 639 -3905 700 -198 9 -961 11 -1140 3z m840 -3628
c468 -69 903 -288 1235 -620 359 -358 585 -839 634 -1349 62 -637 -175 -1293
-634 -1751 -331 -332 -761 -548 -1235 -621 -158 -24 -463 -25 -620 -1 -397 61
-758 216 -1060 457 -106 85 -307 291 -381 390 -181 242 -302 492 -373 771 -54
209 -70 336 -70 554 0 489 147 928 443 1325 74 99 275 305 381 390 341 272
749 431 1210 474 86 8 366 -3 470 -19z m-4390 -4381 c500 -66 990 -326 1330
-705 337 -376 932 -746 1508 -938 887 -296 1891 -259 2745 100 469 197 975
535 1219 816 547 627 1404 887 2218 672 669 -177 1219 -671 1475 -1323 99
-252 145 -509 145 -799 -1 -354 -71 -654 -226 -967 -129 -260 -236 -401 -491
-650 -498 -488 -858 -1122 -1029 -1814 -83 -337 -109 -568 -109 -956 1 -314
11 -439 61 -706 142 -777 542 -1531 1080 -2039 76 -71 171 -170 213 -220 265
-319 440 -727 491 -1145 14 -121 12 -417 -4 -540 -54 -401 -220 -787 -473
-1100 -146 -180 -386 -387 -590 -507 -692 -407 -1569 -401 -2253 17 -143 87
-268 188 -435 350 -88 85 -207 196 -265 245 -572 491 -1273 803 -2031 906
-196 26 -622 37 -824 20 -760 -63 -1458 -330 -2065 -792 -165 -125 -225 -180
-328 -300 -351 -409 -842 -674 -1376 -744 -134 -17 -411 -20 -536 -5 -342 42
-690 169 -965 353 -164 109 -357 286 -483 440 -213 260 -376 601 -446 932 -70
334 -59 713 31 1035 186 670 681 1217 1325 1464 245 94 453 135 719 143 379
12 709 -59 1039 -223 277 -138 440 -263 715 -554 149 -157 407 -355 670 -513
809 -488 1785 -664 2725 -491 638 118 1231 390 1746 802 118 94 516 488 649
642 771 893 1093 2124 864 3300 -122 623 -409 1232 -818 1730 -109 133 -479
515 -596 615 -1188 1018 -2884 1230 -4282 535 -402 -199 -686 -404 -1033 -745
-113 -110 -242 -228 -286 -262 -787 -587 -1850 -591 -2632 -9 -489 364 -801
913 -873 1536 -17 147 -7 442 20 592 165 919 867 1625 1778 1789 221 39 446
44 683 13z m-4480 -4355 c321 -29 657 -138 929 -300 196 -118 387 -281 580
-497 178 -199 571 -477 927 -655 386 -193 792 -317 1239 -378 191 -26 619 -36
820 -20 826 68 1575 376 2215 912 58 49 126 115 152 147 70 87 221 236 323
318 664 532 1580 632 2343 254 1076 -534 1525 -1836 1003 -2915 -323 -669
-944 -1118 -1696 -1226 -134 -20 -445 -17 -590 5 -372 56 -719 201 -1015 424
-41 31 -156 136 -255 232 -256 250 -409 375 -651 533 -533 346 -1101 548
-1739 619 -158 17 -642 17 -800 0 -693 -77 -1294 -302 -1864 -700 -164 -114
-340 -263 -512 -433 -234 -232 -407 -360 -644 -474 -316 -153 -607 -219 -960
-219 -583 0 -1102 210 -1519 614 -303 294 -499 628 -601 1025 -54 208 -68 324
-68 550 0 227 14 341 69 555 152 592 550 1093 1104 1389 358 190 798 278 1210
240z m17520 0 c504 -46 964 -258 1329 -613 133 -131 208 -221 307 -371 239
-365 354 -752 354 -1200 0 -365 -63 -640 -220 -960 -123 -252 -240 -414 -437
-606 -347 -339 -756 -539 -1248 -610 -133 -20 -455 -17 -595 4 -469 72 -874
271 -1212 596 -335 321 -555 737 -639 1207 -20 111 -23 163 -23 369 0 206 3
258 23 369 127 711 568 1295 1213 1606 257 123 485 185 788 214 81 7 253 5
360 -5z m-8652 -8794 c442 -63 851 -260 1196 -576 33 -30 102 -103 153 -163
392 -458 580 -1049 522 -1642 -55 -568 -336 -1103 -769 -1466 -536 -449 -1242
-617 -1927 -458 -222 52 -506 177 -704 309 -528 353 -875 913 -960 1551 -19
138 -16 439 5 584 68 471 286 905 621 1241 365 365 834 584 1356 635 121 11
376 4 507 -15z"/>
</g>
</svg>
