<?xml version="1.0" standalone="no"?>
<!DOCTYPE svg PUBLIC "-//W3C//DTD SVG 20010904//EN"
 "http://www.w3.org/TR/2001/REC-SVG-20010904/DTD/svg10.dtd">
<svg version="1.0" xmlns="http://www.w3.org/2000/svg"
 width="2912.000000pt" height="2912.000000pt" viewBox="0 0 2912.000000 2912.000000"
 preserveAspectRatio="xMidYMid meet">
<metadata>
Created by potrace 1.11, written by Peter Selinger 2001-2013
</metadata>
<g transform="translate(0.000000,2912.000000) scale(0.100000,-0.100000)"
fill="#000000" stroke="none">
<path d="M13860 29109 c-3081 -150 -5998 -1253 -8395 -3173 -449 -360 -760
-640 -1200 -1081 -441 -440 -721 -751 -1081 -1200 -1660 -2073 -2720 -4555
-3064 -7180 -87 -665 -120 -1192 -120 -1914 0 -496 8 -726 40 -1147 306 -4001
2262 -7692 5418 -10228 2157 -1733 4788 -2819 7532 -3110 574 -61 882 -76
1570 -76 559 0 746 6 1135 35 3564 270 6912 1858 9396 4458 2333 2441 3736
5579 3994 8932 29 384 35 574 35 1135 0 561 -6 751 -35 1135 -188 2448 -992
4799 -2342 6853 -1640 2497 -4013 4436 -6778 5542 -1506 602 -3072 939 -4730
1020 -240 11 -1130 11 -1375 -1z m977 -3624 c316 -41 650 -163 908 -332 460
-301 798 -771 929 -1291 54 -214 61 -270 61 -547 0 -277 -7 -333 -61 -547
-153 -608 -580 -1133 -1149 -1413 -227 -112 -448 -179 -695 -210 -167 -22
-484 -16 -630 10 -624 112 -1135 446 -1472 960 -237 361 -358 767 -358 1200 0
433 121 839 358 1200 351 536 898 880 1542 970 133 18 423 18 567 0z m-4405
-4380 c345 -40 657 -153 948 -343 146 -95 264 -196 415 -356 607 -641 1513
-1061 2451 -1137 208 -17 625 -6 821 20 866 118 1677 517 2232 1100 233 245
412 381 666 506 610 300 1314 300 1930 0 771 -375 1258 -1190 1221 -2045 -13
-322 -81 -588 -221 -875 -129 -266 -271 -454 -507 -677 -283 -266 -549 -639
-742 -1038 -86 -178 -121 -263 -183 -445 -389 -1140 -228 -2405 434 -3415 155
-235 338 -459 480 -583 388 -341 634 -793 720 -1322 24 -153 24 -487 0 -640
-60 -365 -197 -701 -400 -974 -365 -490 -883 -795 -1487 -877 -135 -18 -425
-18 -560 0 -408 55 -793 220 -1102 473 -78 65 -303 283 -303 296 0 4 -4 8 -10
9 -5 1 -50 37 -99 80 -1026 906 -2477 1209 -3781 791 -576 -184 -1193 -555
-1493 -896 -382 -433 -820 -679 -1363 -764 -156 -24 -479 -24 -638 1 -726 112
-1336 562 -1650 1218 -103 214 -168 430 -202 668 -16 113 -16 432 0 550 66
494 280 929 626 1275 346 346 781 560 1275 626 118 16 437 16 550 0 238 -34
454 -99 668 -202 257 -123 459 -272 669 -495 536 -569 1352 -978 2188 -1098
383 -55 836 -49 1220 15 685 114 1382 442 1899 892 138 121 526 524 634 659
731 918 1014 2102 777 3254 -126 612 -415 1209 -820 1697 -136 165 -554 582
-690 690 -214 171 -543 377 -765 480 -521 241 -1019 359 -1580 374 -896 24
-1754 -252 -2473 -795 -144 -109 -254 -206 -427 -381 -217 -220 -388 -344
-638 -464 -664 -317 -1462 -275 -2086 111 -492 304 -842 784 -980 1343 -44
180 -60 317 -60 524 0 217 16 345 69 550 270 1051 1287 1747 2367 1620z
m-4345 -4370 c467 -61 896 -267 1237 -595 58 -56 131 -133 163 -172 65 -80
246 -234 417 -357 1109 -790 2552 -949 3806 -420 457 193 934 513 1176 790
313 357 687 591 1124 703 334 85 721 89 1050 10 401 -95 748 -290 1041 -583
330 -330 524 -706 616 -1191 25 -137 25 -573 0 -710 -89 -469 -278 -844 -592
-1169 -321 -333 -738 -551 -1215 -636 -128 -22 -436 -31 -581 -16 -280 30
-569 118 -806 247 -212 115 -394 256 -603 469 -267 271 -625 529 -986 708
-779 388 -1663 506 -2524 335 -610 -121 -1190 -392 -1680 -784 -74 -60 -218
-189 -320 -289 -102 -99 -231 -215 -287 -257 -284 -214 -598 -348 -963 -413
-125 -22 -443 -31 -580 -16 -862 94 -1583 675 -1850 1489 -78 240 -110 439
-110 694 0 425 122 834 358 1193 347 530 907 884 1532 969 144 19 431 20 577
1z m17523 -1 c299 -39 601 -145 854 -302 359 -222 631 -521 821 -903 414 -836
245 -1852 -420 -2514 -312 -310 -709 -519 -1140 -601 -191 -36 -480 -44 -673
-20 -478 61 -902 263 -1241 591 -203 196 -341 384 -455 619 -154 316 -219 600
-219 961 0 360 66 649 218 960 115 236 245 414 441 606 348 339 780 547 1259
608 120 15 423 12 555 -5z m-8812 -8775 c731 -80 1375 -527 1710 -1186 98
-194 159 -374 203 -608 27 -140 37 -473 20 -626 -39 -336 -165 -683 -348 -959
-359 -542 -937 -897 -1582 -971 -153 -17 -486 -7 -626 20 -233 44 -414 105
-605 202 -594 302 -1018 852 -1154 1494 -73 348 -58 743 39 1079 243 832 983
1456 1845 1555 109 12 386 13 498 0z"/>
</g>
</svg>
