<svg version="1.0" xmlns="http://www.w3.org/2000/svg"
 width="2912.000000pt" height="2912.000000pt" viewBox="0 0 2912.000000 2912.000000"
 preserveAspectRatio="xMidYMid meet">

<g transform="translate(0.000000,2912.000000) scale(0.100000,-0.100000)"
fill="#000000" stroke="none">
<path d="M1 22108 c1 -3857 6 -6936 10 -6843 116 2395 823 4735 2047 6775 484
808 1022 1535 1675 2265 207 232 850 875 1082 1082 996 891 2014 1589 3170
2173 984 498 1926 849 3001 1120 982 248 1906 382 2979 433 33 2 -3096 4
-6952 5 l-7013 2 1 -7012z"/>
<path d="M15175 29113 c2443 -105 4807 -812 6881 -2058 1390 -836 2652 -1916
3695 -3165 1875 -2246 3021 -4985 3308 -7905 17 -172 44 -543 54 -740 2 -33 4
3075 5 6908 l2 6967 -7007 -2 c-3855 -1 -6976 -3 -6938 -5z"/>
<path d="M14325 25503 c-508 -63 -931 -261 -1291 -605 -302 -289 -527 -691
-618 -1100 -38 -174 -50 -287 -49 -478 0 -357 72 -658 234 -983 208 -418 574
-779 996 -983 453 -219 969 -277 1452 -164 320 75 657 243 906 452 433 363
713 882 776 1437 17 154 7 487 -20 627 -144 762 -650 1379 -1361 1657 -264
104 -508 148 -805 145 -104 0 -203 -3 -220 -5z"/>
<path d="M9975 21123 c-22 -2 -96 -13 -164 -24 -606 -100 -1153 -467 -1488
-997 -297 -471 -402 -1057 -288 -1608 53 -253 173 -543 313 -754 612 -922
1792 -1248 2780 -770 260 126 410 237 657 485 94 94 220 211 280 260 617 503
1332 796 2130 876 177 18 579 15 762 -5 809 -88 1550 -405 2147 -919 96 -82
465 -459 560 -571 530 -625 845 -1384 916 -2211 13 -143 16 -477 6 -595 -45
-528 -161 -972 -368 -1411 -120 -253 -302 -543 -480 -767 -114 -142 -415 -452
-583 -602 -731 -648 -1638 -993 -2610 -993 -904 1 -1757 301 -2465 870 -74 59
-205 178 -291 264 -86 87 -192 185 -235 220 -483 385 -1095 552 -1694 463
-1070 -159 -1870 -1084 -1870 -2162 0 -510 182 -1015 502 -1397 88 -105 245
-259 338 -332 501 -391 1156 -546 1779 -422 496 99 938 366 1268 766 56 68
122 133 201 196 776 627 1734 929 2742 865 688 -44 1391 -292 1965 -693 182
-127 348 -267 530 -450 245 -245 416 -372 660 -490 136 -66 244 -107 389 -145
220 -58 278 -65 566 -65 232 0 279 3 380 22 304 59 575 167 818 326 808 533
1170 1516 901 2446 -59 203 -151 400 -272 585 -102 154 -200 269 -361 421
-282 266 -512 578 -708 962 -298 579 -441 1190 -432 1838 10 720 197 1379 566
1988 171 283 323 475 573 722 268 266 381 418 511 690 242 507 279 1085 104
1615 -114 343 -281 613 -539 870 -437 435 -1001 657 -1616 637 -458 -15 -867
-158 -1239 -435 -91 -68 -297 -262 -372 -352 -67 -79 -252 -233 -444 -367
-528 -370 -1111 -592 -1785 -680 -174 -22 -709 -26 -875 -5 -674 82 -1233 286
-1765 642 -206 138 -439 326 -520 420 -375 436 -886 708 -1450 770 -85 9 -341
11 -430 3z"/>
<path d="M5575 16754 c-297 -42 -494 -99 -720 -208 -442 -212 -798 -567 -1016
-1011 -154 -315 -221 -604 -222 -955 0 -352 63 -636 212 -945 124 -257 257
-442 457 -635 416 -401 936 -612 1514 -613 347 -1 643 66 959 219 245 118 391
224 636 464 182 178 268 254 410 361 572 432 1190 681 1920 775 200 26 711 26
910 1 496 -65 888 -182 1305 -393 396 -200 673 -399 1010 -729 203 -197 265
-250 415 -348 273 -178 588 -293 925 -338 134 -18 430 -15 565 5 878 133 1580
750 1810 1591 60 221 70 303 70 580 0 214 -3 267 -22 370 -154 839 -749 1501
-1560 1735 -216 62 -320 75 -603 75 -271 -1 -330 -7 -542 -61 -393 -99 -780
-330 -1050 -627 -199 -218 -344 -343 -588 -507 -541 -362 -1112 -570 -1775
-646 -204 -24 -613 -24 -823 -1 -487 54 -907 177 -1332 388 -370 185 -718 427
-920 642 -233 248 -340 345 -506 455 -243 163 -523 275 -829 334 -88 16 -157
21 -345 23 -129 2 -248 1 -265 -1z"/>
<path d="M23030 16745 c-637 -90 -1187 -437 -1543 -975 -167 -253 -282 -553
-334 -875 -25 -154 -25 -487 0 -640 39 -240 96 -424 196 -630 306 -635 882
-1073 1585 -1206 161 -31 484 -38 667 -14 480 61 922 278 1269 625 557 558
771 1386 553 2145 -171 597 -588 1093 -1148 1366 -220 106 -428 170 -665 203
-133 18 -454 19 -580 1z"/>
<path d="M2 7008 l-2 -7008 6963 1 c3829 1 6899 5 6822 10 -2911 162 -5652
1155 -7957 2885 -191 143 -570 443 -598 474 -3 3 -48 41 -100 85 -52 43 -100
84 -106 90 -10 9 -111 98 -168 148 -11 10 -66 60 -121 110 -577 531 -1090
1078 -1569 1677 -1920 2400 -3026 5363 -3159 8465 -2 39 -4 -3083 -5 -6937z"/>
<path d="M29106 13764 c-14 -325 -63 -839 -117 -1224 -505 -3607 -2312 -6851
-5116 -9187 -2407 -2005 -5373 -3167 -8533 -3342 -80 -4 2988 -9 6818 -10
l6962 -1 0 6960 c0 3828 -2 6960 -3 6960 -2 0 -7 -70 -11 -156z"/>
<path d="M14281 7964 c-730 -88 -1382 -559 -1702 -1229 -139 -290 -198 -545
-206 -885 -9 -398 50 -674 217 -1015 125 -254 242 -417 443 -612 655 -636
1634 -799 2455 -408 651 311 1095 895 1224 1611 20 112 23 161 23 369 -1 203
-4 259 -22 362 -82 455 -287 853 -603 1173 -479 484 -1149 716 -1829 634z"/>
</g>
</svg>